<svg xmlns="http://www.w3.org/2000/svg" version="1.1" xmlns:xlink="http://www.w3.org/1999/xlink" xmlns:svgjs="http://svgjs.dev/svgjs" width="1000" height="623" viewBox="0 0 1000 623"><g transform="matrix(1,0,0,1,-0.6060606060606233,0.2522267206477409)"><svg viewBox="0 0 396 247" data-background-color="#3a30f4" preserveAspectRatio="xMidYMid meet" height="623" width="1000" xmlns="http://www.w3.org/2000/svg" xmlns:xlink="http://www.w3.org/1999/xlink"><g id="tight-bounds" transform="matrix(1,0,0,1,0.2400000000000091,-0.09999999999999432)"><svg viewBox="0 0 395.52 247.2" height="247.2" width="395.52"><g><svg></svg></g><g><svg viewBox="0 0 395.52 247.2" height="247.2" width="395.52"><g transform="matrix(1,0,0,1,75.54432000000001,72.35190857142857)"><svg viewBox="0 0 244.43135999999996 102.49618285714284" height="102.49618285714284" width="244.43135999999996"><g><svg viewBox="0 0 244.43135999999996 102.49618285714284" height="102.49618285714284" width="244.43135999999996"><g><svg viewBox="0 0 244.43135999999996 102.49618285714284" height="102.49618285714284" width="244.43135999999996"><g id="textblocktransform"><svg viewBox="0 0 244.43135999999996 102.49618285714284" height="102.49618285714284" width="244.43135999999996" id="textblock"><g><svg viewBox="0 0 244.43135999999996 102.49618285714284" height="102.49618285714284" width="244.43135999999996"><g transform="matrix(1,0,0,1,0,0)"><svg width="244.43135999999996" viewBox="-7.5 -38.349998474121094 108.13999938964844 45.349998474121094" height="102.49618285714284" data-palette-color="#ffffff"><path d="M23.3-23.5L23.3-23.5Q21.35-23.5 21.35-25.2L21.35-25.2Q21.35-27.8 24.25-30.1 27.15-32.4 31.15-33.85L31.15-33.85Q30.8-35.3 29.35-36.08 27.9-36.85 25.78-36.85 23.65-36.85 21.38-36.05 19.1-35.25 17.07-33.77 15.05-32.3 13.78-29.88 12.5-27.45 12.5-24.55L12.5-24.55Q12.5-23.55 14-18.7 15.5-13.85 15.5-10.65L15.5-10.65Q15.5-9.85 15.3-8.35L15.3-8.35Q17.2-8.55 18.05-8.55L18.05-8.55Q22.9-8.55 22.9-6L22.9-6Q22.9-5.1 22.35-4.5 21.8-3.9 20.5-3.1L20.5-3.1Q20.1-3.35 20.1-3.55 20.1-3.75 20.3-3.9L20.3-3.9Q21.8-4.75 21.8-5.6L21.8-5.6Q21.8-7.3 17.85-7.3L17.85-7.3Q16.4-7.3 15.05-7.1L15.05-7.1Q14.2-3.9 11.88-1.13 9.55 1.65 6.7 3.38 3.85 5.1 0.98 6.05-1.9 7-4.1 7L-4.1 7Q-7.5 7-7.5 5L-7.5 5Q-7.5 2.2-4-0.65-0.5-3.5 4.33-5.43 9.15-7.35 13.8-8.15L13.8-8.15Q14-9.55 14-10.4L14-10.4Q14-12.55 12.43-17.13 10.85-21.7 10.85-25 10.85-28.3 13.45-31.58 16.05-34.85 19.63-36.6 23.2-38.35 26.4-38.35L26.4-38.35Q31.45-38.35 31.95-34.1L31.95-34.1Q34.75-35 35.75-35 36.75-35 36.83-34.93 36.9-34.85 36.9-34.35 36.9-33.85 36.45-33.7L36.45-33.7Q34.2-33.6 32-33.05L32-33.05Q31.9-29 28.95-26.25 26-23.5 23.3-23.5ZM-5.55 3.75L-5.55 3.75Q-5.55 5.2-2.65 5.2L-2.65 5.2Q1.4 5.2 6.4 2.3L6.4 2.3Q8.85 0.9 10.83-1.53 12.8-3.95 13.55-6.9L13.55-6.9Q9.3-6.2 5.03-4.65 0.75-3.1-2.4-0.83-5.55 1.45-5.55 3.75ZM22.95-25.5L22.95-25.5Q22.95-24.55 23.95-24.55L23.95-24.55Q25.85-24.55 28.53-27.13 31.2-29.7 31.25-32.8L31.25-32.8Q27.75-31.7 25.35-29.75 22.95-27.8 22.95-25.5ZM23.55-0.65L23.55-0.65Q24-0.65 28.57-4.63 33.15-8.6 33.95-8.6 34.75-8.6 34.75-7.9L34.75-7.9Q34.75-7.35 33.75-6.2 32.75-5.05 31.77-3.7 30.8-2.35 30.8-1.3L30.8-1.3Q30.8-0.75 31.62-0.75 32.45-0.75 34.55-1.73 36.65-2.7 38.25-3.7L38.25-3.7 39.85-4.7Q39.9-4.6 39.9-4.3 39.9-4 39.45-3.8L39.45-3.8Q32.7 0.8 30.05 0.8L30.05 0.8Q28.75 0.8 28.75-0.6L28.75-0.6Q28.75-1.55 29.45-2.9 30.15-4.25 30.85-5.15L30.85-5.15 31.5-6.05Q29.25-4.35 26.85-2.23 24.45-0.1 23.2 0.98 21.95 2.05 21.45 2.05 20.95 2.05 20.95 1.33 20.95 0.6 23.3-3.7 25.65-8 28.72-12.98 31.8-17.95 35.17-22 38.55-26.05 40.3-26.05L40.3-26.05Q41.05-26.05 41.35-25.35L41.35-25.35Q41.5-25.1 41.5-24.75L41.5-24.75Q41.5-21.3 31.15-11.5L31.15-11.5Q29.2-9.6 27.35-8L27.35-8Q23.55-1.6 23.55-0.65ZM39.85-24.2L39.85-24.2Q39.85-24.7 39.6-24.7L39.6-24.7Q38.6-24.7 35.4-20.3 32.2-15.9 28.6-10.05L28.6-10.05Q39.85-20.3 39.85-24.2ZM38.8-3.35L38.8-3.35Q38.59-3.25 38.42-3.25 38.24-3.25 38.24-3.45 38.24-3.65 38.4-3.8L38.4-3.8Q40.45-4.95 42.9-7.55L42.9-7.55Q40.65-8.25 40.65-9.53 40.65-10.8 42.34-12.38 44.05-13.95 45.55-13.95L45.55-13.95Q46.55-13.95 46.55-12.75L46.55-12.75Q46.55-10.9 44.7-8.8L44.7-8.8Q47.09-8.4 47.09-7.65L47.09-7.65Q47.09-6.65 46.22-6.13 45.34-5.6 44.2-4.25 43.05-2.9 43.05-1.55L43.05-1.55Q43.05-1.25 43.25-1 43.45-0.75 44.09-0.75 44.75-0.75 46.84-1.73 48.95-2.7 50.55-3.7L50.55-3.7 52.15-4.7Q52.2-4.6 52.2-4.3 52.2-4 51.75-3.8L51.75-3.8Q45 0.8 42.34 0.8L42.34 0.8Q41.05 0.8 41.05-0.5L41.05-0.5Q41.05-1.55 41.77-2.7 42.49-3.85 43.37-4.6 44.25-5.35 44.97-6.03 45.7-6.7 45.7-6.9 45.7-7.1 45.07-7.15 44.45-7.2 43.45-7.4L43.45-7.4Q40.7-4.45 38.8-3.35ZM41.9-10.3L41.9-10.3Q41.9-9.3 44.09-8.9L44.09-8.9Q45.4-10.5 45.4-11.68 45.4-12.85 44.65-12.85 43.9-12.85 42.9-11.98 41.9-11.1 41.9-10.3ZM53.49-4.85L53.49-4.85Q50.49-4.85 50.49-6.15L50.49-6.15Q50.49-7.7 54.04-9.83 57.59-11.95 60.44-11.95L60.44-11.95Q61.89-11.95 61.89-11.05L61.89-11.05Q61.89-10.55 61.14-9.95 60.39-9.35 59.69-9 58.99-8.65 58.89-8.65L58.89-8.65Q58.59-8.65 58.49-8.9L58.49-8.9Q58.39-9.25 59.02-9.63 59.64-10 59.64-10.45 59.64-10.9 58.52-10.9 57.39-10.9 54.99-9.33 52.59-7.75 52.59-6.75L52.59-6.75Q52.59-6 54.34-6L54.34-6Q54.64-6 55.44-6.05 56.24-6.1 56.24-5.85 56.24-5.6 53.77-4.05 51.29-2.5 51.29-1.4L51.29-1.4Q51.29-0.15 52.92-0.15 54.54-0.15 56.59-1L56.59-1Q59.89-2.45 62.59-4.1L62.59-4.1 63.54-4.7Q63.59-4.6 63.59-4.3 63.59-4 63.14-3.8L63.14-3.8Q60.49-2 57.34-0.38 54.19 1.25 51.67 1.25 49.14 1.25 49.14-0.43 49.14-2.1 53.49-4.85ZM65.14-5.45L65.14-5.45Q62.74-3.25 62.09-3.25L62.09-3.25Q61.89-3.25 61.89-3.45 61.89-3.65 62.04-3.8L62.04-3.8Q63.24-4.45 64.84-5.9L64.84-5.9Q64.59-6.5 64.59-7.2L64.59-7.2Q64.59-8.9 66.34-10.45 68.09-12 69.29-12L69.29-12Q69.94-12 69.94-11.38 69.94-10.75 67.94-8.35L67.94-8.35Q67.74-8.1 67.49-7.85 67.24-7.6 66.97-7.28 66.69-6.95 66.54-6.8L66.54-6.8Q66.79-6.55 67.44-5.93 68.09-5.3 68.49-4.9L68.49-4.9Q69.59-3.8 69.59-2.15 69.59-0.5 67.54 0.73 65.49 1.95 63.27 1.95 61.04 1.95 61.04 0.63 61.04-0.7 63.09-1.8 65.14-2.9 67.39-3.3L67.39-3.3Q67.09-3.7 66.27-4.35 65.44-5 65.14-5.45ZM67.74-2.7Q66.04-2.5 64.54-1.78 63.04-1.05 63.04-0.08 63.04 0.9 64.42 0.9 65.79 0.9 66.87 0.25 67.94-0.4 67.94-1.2 67.94-2 67.74-2.7L67.74-2.7ZM66.19-7.2L66.19-7.2 67.49-8.6Q68.79-10.15 68.79-10.48 68.79-10.8 68.49-10.8L68.49-10.8Q67.64-10.8 66.74-9.98 65.84-9.15 65.84-8.38 65.84-7.6 66.19-7.2ZM73.04-16.5L73.04-16.5Q76.44-16.5 79.74-16.55L79.74-16.55Q85.09-23.4 87.04-23.4L87.04-23.4Q87.74-23.4 87.74-22.65L87.74-22.65Q87.74-20.25 84.24-16.65L84.24-16.65 88.04-16.7Q91.84-16.85 92.69-16.85 93.54-16.85 93.54-16.65L93.54-16.65Q93.54-15.7 92.24-15.65L92.24-15.65 82.84-15.25Q80.39-12.95 76.79-10.4L76.79-10.4Q72.99-4.15 72.99-1.9L72.99-1.9Q72.99-0.75 74.46-0.75 75.94-0.75 79.14-2.35L79.14-2.35 83.19-4.7Q83.24-4.6 83.24-4.3 83.24-4 82.79-3.8L82.79-3.8Q81.19-2.7 79.29-1.6L79.29-1.6Q75.24 0.45 73.09 0.45L73.09 0.45Q72.09 0.45 71.54 0.05 70.99-0.35 70.94-0.75L70.94-0.75 70.84-1.15Q70.84-2.85 73.14-6.88 75.44-10.9 78.59-15.1L78.59-15.1Q76.19-15 74.04-15 71.89-15 71.89-15.5L71.89-15.5Q71.89-16.45 73.04-16.5ZM86.19-21.6L86.19-21.6Q86.19-21.85 85.99-21.85L85.99-21.85Q84.84-21.85 80.89-16.6L80.89-16.6 83.39-16.6Q86.19-19.65 86.19-21.6ZM81.99-15.2L81.99-15.2Q80.39-15.2 79.84-15.15L79.84-15.15Q79.39-14.5 78.59-13.25 77.79-12 77.49-11.55L77.49-11.55Q80.09-13.45 81.99-15.2ZM82.69-0.65L82.69-0.65Q83.14-0.65 87.71-4.63 92.29-8.6 93.09-8.6 93.89-8.6 93.89-7.9L93.89-7.9Q93.89-7.35 92.89-6.2 91.89-5.05 90.91-3.7 89.94-2.35 89.94-1.3L89.94-1.3Q89.94-0.75 90.76-0.75 91.59-0.75 93.69-1.73 95.79-2.7 97.39-3.7L97.39-3.7 98.99-4.7Q99.04-4.6 99.04-4.3 99.04-4 98.59-3.8L98.59-3.8Q91.84 0.8 89.19 0.8L89.19 0.8Q87.89 0.8 87.89-0.6L87.89-0.6Q87.89-1.55 88.59-2.9 89.29-4.25 89.98-5.15L89.98-5.15 90.64-6.05Q88.39-4.35 85.98-2.23 83.59-0.1 82.34 0.98 81.09 2.05 80.59 2.05 80.09 2.05 80.09 1.33 80.09 0.6 82.44-3.7 84.79-8 87.86-12.98 90.94-17.95 94.31-22 97.69-26.05 99.44-26.05L99.44-26.05Q100.19-26.05 100.49-25.35L100.49-25.35Q100.64-25.1 100.64-24.75L100.64-24.75Q100.64-21.3 90.29-11.5L90.29-11.5Q88.34-9.6 86.48-8L86.48-8Q82.69-1.6 82.69-0.65ZM98.99-24.2L98.99-24.2Q98.99-24.7 98.74-24.7L98.74-24.7Q97.74-24.7 94.54-20.3 91.34-15.9 87.73-10.05L87.73-10.05Q98.99-20.3 98.99-24.2Z" opacity="1" transform="matrix(1,0,0,1,0,0)" fill="#ffffff" class="wordmark-text-0" data-fill-palette-color="primary" id="text-0"></path></svg></g></svg></g></svg></g></svg></g></svg></g></svg></g><g><path d="M0 123.6c0-68.262 55.338-123.6 123.6-123.6 45.108 0 84.572 24.164 106.155 60.253l-5.424 0c-21.064-33.425-58.304-55.632-100.731-55.631-65.71 0-118.978 53.268-118.978 118.978 0 65.71 53.268 118.978 118.978 118.978 42.427 0 79.667-22.207 100.731-55.631l5.424 0c-21.582 36.09-61.047 60.253-106.155 60.253-68.262 0-123.6-55.338-123.6-123.6z" fill="#ffffff" stroke="transparent" data-fill-palette-color="tertiary"></path></g></svg></g><defs></defs></svg><rect width="395.52" height="247.2" fill="none" stroke="none" visibility="hidden"></rect></g></svg></g></svg>